<svg width="32" height="22" viewBox="0 0 32 22" fill="none" xmlns="http://www.w3.org/2000/svg">
<path fill-rule="evenodd" clip-rule="evenodd" d="M7.19973 2.40214C7.38951 2.92368 8.08063 3.06104 8.50184 2.69403C10.4278 1.01588 12.9432 0 15.6952 0C20.2644 0 24.1812 2.80034 25.8314 6.78259C26.2663 7.83208 26.5777 8.92978 27.013 9.9791L32 22H25.6744L24.4815 19.2678C24.2632 18.7677 23.583 18.6655 23.1825 19.0405C21.222 20.8764 18.5895 22 15.6952 22C10.8051 22 6.66216 18.7923 5.24542 14.3611L0 0H6.32558L7.19973 2.40214ZM16.1524 16.5C19.1821 16.5 21.6381 14.0376 21.6381 11C21.6381 7.96242 19.1821 5.5 16.1524 5.5C13.1227 5.5 10.6667 7.96242 10.6667 11C10.6667 14.0376 13.1227 16.5 16.1524 16.5Z" fill="#724fd8"/>
</svg>
